<?xml version="1.0" encoding="utf-8"?>
<!-- Generator: Adobe Illustrator 22.1.0, SVG Export Plug-In . SVG Version: 6.00 Build 0)  -->
<svg version="1.1" id="Layer_1" xmlns="http://www.w3.org/2000/svg" xmlns:xlink="http://www.w3.org/1999/xlink" x="0px" y="0px"
	 viewBox="0 0 242.4 56.1" style="enable-background:new 0 0 242.4 56.1;" xml:space="preserve">
<g>
	<g>
		<path d="M20.6,32.1c0,0-2,1.4-3.6,1.9c-3,0.8-6.4,0.4-6.4,0.4c-1.4,0-2.8-0.9-4.4-2.8c-1.6-1.9-2.4-3.7-2.5-5.3
			c2.2,0.2,4.5-0.4,6.8-1.9c0.8,1.8,1.9,2.7,3.1,2.7c0.5,0,1.1-0.1,1.6-0.5c0.5-0.3,0.7-0.8,0.7-1.4c0-1-1-1.9-3.1-2.7
			c-2.8-1.1-4.7-2.2-5.7-2.9C5.1,17.9,4,15.5,4,12.4c-0.1-3.3,1.5-6.3,5-8c2.4-1.1,6-0.9,6-0.9c1.9,0,3.6,0.8,5.2,2.3
			c1.6,1.6,2.4,3.3,2.5,5.2c-1.6,0.3-2.9,0.7-3.8,1.1c-0.8,0.4-1.7,0.8-2.5,1.2c-0.3-0.6-0.6-1.1-0.8-1.6c-0.3-0.5-1-0.8-1.9-0.8
			c-1.5,0-2.2,0.6-2.2,1.7c0,0.7,1.1,1.5,3.1,2.4c2.7,1.2,4.7,2.3,5.8,3.3c2.1,1.9,3.1,4.4,3.1,7.5C23.4,28.5,22.4,30.9,20.6,32.1"
			/>
		<path d="M44.3,11.5h-5.8v20.1c0.4,0.5,1.1,1.4,2,2.7H29.7c1.1-3.8,1.6-6.9,1.6-9.4V11.4h-5.7c0,0-0.2-5.3-2-7.8H46
			C44.8,6.2,44.2,8.9,44.3,11.5"/>
		<path d="M153.8,11.5H148c0,0-0.4,7.2,0,13.7c0.3,3.9,0.8,7.6,2,9.1h-10.7c1.4-2.1,1.6-6.9,1.6-9.4V11.4h-5.7c0,0-0.2-5.3-2-7.8
			h22.4C154.3,6.2,153.7,8.9,153.8,11.5"/>
		<path d="M70.3,7.2c-0.5,1.6-0.6,2.7-0.6,3.4v15.1c0,1,0,2-0.1,2.8c-0.2,0.9-0.4,2.3-1,3.4c-0.7,1.2-1.9,2.4-3.2,2.5
			c-4.5,0.3-10.2,0-10.2,0c-1.6,0-3-0.9-4.1-2.9c-0.8-1.5-1.2-2.8-1.2-3.9V6.7c0,0-0.3-0.5-0.8-1.2C48.4,4.6,48,4,47.8,3.6h10.9
			c-0.8,2.5-1.6,5.4-1.6,8.7v12.5c0,1.8,1.2,2.6,3.3,2.5c1-0.1,1.6-0.1,1.9-0.3c0.8-0.3,1.2-1.1,1.2-2.2l0-18.1
			c-0.3-0.5-0.9-1.5-1.8-3h10.1C71.3,4.4,70.8,5.6,70.3,7.2"/>
		<path d="M104.9,32.9c0.5,0.9,0.8,1.3,0.9,1.4H95.3c0.4-0.8,0.7-2,1-3.7c0.3-1.5,0.4-2.7,0.4-3.8l0.1-10.2l-4.8,15
			c0.2,0.5,0.6,1.5,1.3,2.7h-6.3c0-3.5-1.6-9.3-4.6-17.4v14.7c0.6,0.8,1.1,1.7,1.8,2.8h-9.7c0.3-1.1,0.7-2.1,1-3.1
			c0.4-1.2,0.6-2.7,0.6-4.3V7l-2-3.4h12c0,1,0.1,2.3,0.5,4c0.8,2.7,2.1,6.4,3.8,11.1l3.6-11.9c-0.4-0.7-0.9-1.7-1.7-3.2h13.4
			c-1.3,1.9-1.8,5.2-1.8,9.8l0.1,18.3C104.1,31.7,104.4,32.1,104.9,32.9"/>
		<path d="M130.1,19.8c-1.7,2.1-3.7,3.1-6,3.1h-5.7v8.6c0.5,0.5,1.1,1.5,2.1,2.8h-11.4c0.4-1,0.7-1.9,1.1-2.9
			c0.5-1.6,0.8-3.2,0.8-4.9l0-19.6c0,0-0.7-1.1-2.1-3.4h15.4c2.2,0,4.1,1.1,5.8,3.1c1.6,2,2.5,4.2,2.5,6.6
			C132.5,15.7,131.7,17.9,130.1,19.8 M124.1,12c-0.5-0.3-1.2-0.5-1.9-0.5l-3.9,0V16h3.8c1.9,0,2.9-0.7,2.9-2.3
			C125.1,13,124.8,12.4,124.1,12"/>
		<path d="M162.5,34.3c-1.4,0-2.8-0.8-4-2.8c-1.1-1.7-1.4-3.6-1.4-5.2v-15c0.1-0.8,0.2-1.6,0.3-2.5c0.3-1.3,0.4-2.3,2.1-3.7
			c2-1.7,4.5-1.6,4.5-1.6l7.6-0.1c1.6,0.1,2.2,0.5,3.4,1.4c1.1,0.9,1.6,2,2.1,3.2c0.3,0.7,0.4,1.6,0.5,2.5c0,1.1,0,1.7,0,1.9v14.7
			c-0.2,1.6-0.6,2.9-1.3,4.3c-0.6,1.1-1.8,2.6-4.5,2.7C167.9,34.5,162.5,34.3,162.5,34.3 M170.5,13.3c0-1.5-1.1-2.2-3.3-2.2
			c-0.9,0-1.6,0.1-2,0.3c-0.7,0.4-1,1-1,2v10.9c0,1.1,0.4,2,1.2,2.3c0.4,0.2,1.1,0.3,2,0.3c2.1,0,3-0.8,3-2.4L170.5,13.3z"/>
		<path d="M211.8,7.1c-0.6,1.5-1.1,2.6-1.3,3.4c-0.3,1.4-0.9,4.4-1.8,9.1C207.6,26,207,30,207,31.7c0,0.5,0.5,1.4,1.4,2.6h-10.2
			c0.3-0.9,0.5-2,0.5-3.4c0-3-0.7-6.9-2.1-11.6l-2.7,12.4c0.3,0.5,0.7,1.4,1.2,2.6h-11.1c0.7-1,1-2.8,1-5.4c0-2.7-1.4-10.1-4.1-22.2
			l-2.3-3.2l10,0c-0.6,0.9-0.9,2.1-0.9,3.4c0,0.5,0.1,1,0.2,1.5c0.3,1.7,1.2,5.7,2.5,11.9l2.4-13.7l-1.7-3H201c-0.7,1.9-1,3.4-1,4.4
			c0,0.3,0,0.5,0,0.9l2.5,11.7l2.6-14.1c-0.1-0.3-0.3-0.8-0.8-1.4c-0.5-0.6-0.7-1.1-0.8-1.5h9.9C212.8,4.8,212.3,6,211.8,7.1"/>
		<path d="M236.9,10.6v21l0.6,2.8h-9c-0.2-2.7-1.7-8.1-4.7-16.1v13.1c0.5,0.7,1.2,1.6,2,3H216c1-1.1,1.8-3.3,1.8-6.9l0-20.4
			c-0.4-0.8-1-1.9-1.8-3.4l9.3,0c1.4,4,3.3,9.7,5.9,17c0.2-0.1,0.3-4.6,0.1-13.4l-2.6-3.6h10C237.7,5.6,237.1,7.9,236.9,10.6"/>
	</g>
	<g>
		<path d="M42.3,45.4v-1.6h-2.5v5.8h2.5v-1.9l2.8,0.6V50c0,1.9-0.6,2.5-2.4,2.5h-3.3c-1.8,0-2.4-0.7-2.4-2.5v-6.4
			c0-1.9,0.6-2.5,2.4-2.5h3.3c1.8,0,2.4,0.7,2.4,2.5v1.3L42.3,45.4z"/>
		<path d="M55.4,52.5h-3.5c-1.8,0-2.4-0.7-2.4-2.5v-6.4c0-1.9,0.6-2.5,2.4-2.5h3.5c1.8,0,2.4,0.7,2.4,2.5V50
			C57.8,51.8,57.2,52.5,55.4,52.5 M55,43.8h-2.7v5.8H55V43.8z"/>
		<polygon points="62.4,41 68.9,41 68.9,43.8 65.3,43.8 65.3,45.1 68,45.1 68,47.8 65.3,47.8 65.3,52.5 62.4,52.5 		"/>
		<polygon points="72.9,41 79.4,41 79.4,43.8 75.8,43.8 75.8,45.1 78.5,45.1 78.5,47.8 75.8,47.8 75.8,52.5 72.9,52.5 		"/>
		<polygon points="83.4,41 90,41 90,43.8 86.2,43.8 86.2,45.1 89.1,45.1 89.1,47.8 86.2,47.8 86.2,49.7 90.1,49.7 90.1,52.5 
			83.4,52.5 		"/>
		<polygon points="94.4,41 101,41 101,43.8 97.2,43.8 97.2,45.1 100,45.1 100,47.8 97.2,47.8 97.2,49.7 101.1,49.7 101.1,52.5 
			94.4,52.5 		"/>
		<path d="M120.4,52.5h-3l-1.7-4.3h-0.9v4.3H112V41h5c0.8,0,1.3,0.1,1.7,0.3c0.6,0.4,0.8,0.9,0.8,2.2v2.1c0,1.4-0.2,1.9-1,2.3
			L120.4,52.5z M116.3,45.5c0.2,0,0.3-0.1,0.3-0.3v-1.1c0-0.2-0.1-0.3-0.3-0.3h-1.5v1.6H116.3z"/>
		<path d="M130,52.5h-3.5c-1.8,0-2.4-0.7-2.4-2.5v-6.4c0-1.9,0.6-2.5,2.4-2.5h3.5c1.8,0,2.4,0.7,2.4,2.5V50
			C132.4,51.8,131.8,52.5,130,52.5 M129.6,43.8h-2.7v5.8h2.7V43.8z"/>
		<path d="M139.2,41h3.6l3.2,11.5h-3l-0.6-2.4h-2.9l-0.5,2.4h-2.8L139.2,41z M141.8,47.4l-0.8-3.6l-0.8,3.6H141.8z"/>
		<path d="M152.1,48c-1.8,0-2.4-0.7-2.4-2.5v-1.9c0-1.9,0.6-2.5,2.4-2.5h3.4c1.8,0,2.4,0.7,2.4,2.5v0.7l-2.8,0.6v-1.2h-2.6v1.8h3.2
			c1.8,0,2.4,0.7,2.4,2.5V50c0,1.9-0.6,2.5-2.4,2.5H152c-1.8,0-2.4-0.7-2.4-2.5v-0.7l2.8-0.7v1.3h2.9V48H152.1z"/>
		<polygon points="167.3,52.5 164.5,52.5 164.5,43.8 161.9,43.8 161.9,41 170,41 170,43.8 167.3,43.8 		"/>
		<polygon points="174,41 180.6,41 180.6,43.8 176.8,43.8 176.8,45.1 179.6,45.1 179.6,47.8 176.8,47.8 176.8,49.7 180.7,49.7 
			180.7,52.5 174,52.5 		"/>
		<path d="M193.4,52.5h-3l-1.7-4.3h-0.9v4.3h-2.8V41h5c0.8,0,1.3,0.1,1.7,0.3c0.6,0.4,0.8,0.9,0.8,2.2v2.1c0,1.4-0.2,1.9-1,2.3
			L193.4,52.5z M189.3,45.5c0.2,0,0.3-0.1,0.3-0.3v-1.1c0-0.2-0.1-0.3-0.3-0.3h-1.5v1.6H189.3z"/>
		<path d="M199.4,48c-1.8,0-2.4-0.7-2.4-2.5v-1.9c0-1.9,0.6-2.5,2.4-2.5h3.4c1.8,0,2.4,0.7,2.4,2.5v0.7l-2.8,0.6v-1.2h-2.6v1.8h3.2
			c1.8,0,2.4,0.7,2.4,2.5V50c0,1.9-0.6,2.5-2.4,2.5h-3.7c-1.8,0-2.4-0.7-2.4-2.5v-0.7l2.8-0.7v1.3h2.9V48H199.4z"/>
	</g>
</g>
</svg>
